<?xml version="1.0" standalone="no"?>
<!DOCTYPE svg PUBLIC "-//W3C//DTD SVG 20010904//EN"
 "http://www.w3.org/TR/2001/REC-SVG-20010904/DTD/svg10.dtd">
<svg version="1.0" xmlns="http://www.w3.org/2000/svg"
 width="1055.000000pt" height="1055.000000pt" viewBox="0 0 1055.000000 1055.000000"
 preserveAspectRatio="xMidYMid meet">
<metadata>
Created by potrace 1.11, written by Peter Selinger 2001-2013
</metadata>
<g transform="translate(0.000000,1055.000000) scale(0.100000,-0.100000)"
fill="#000000" stroke="none">
<path d="M192 8432 c10 -27 3844 -6972 3848 -6972 4 0 3827 6944 3838 6972 2
4 -263 8 -590 8 l-593 0 -473 -863 c-260 -474 -616 -1121 -790 -1438 -174
-317 -557 -1013 -851 -1547 -294 -535 -537 -972 -541 -972 -6 0 -2080 3752
-2080 3764 0 3 651 6 1448 6 l1447 1 285 516 c157 284 287 520 288 525 2 4
-1176 8 -2618 8 -1442 0 -2620 -4 -2618 -8z"/>
<path d="M9150 8400 c-7 -16 -16 -30 -21 -30 -5 0 -9 -4 -9 -9 0 -5 -224 -418
-499 -918 -469 -855 -582 -1058 -968 -1755 -86 -156 -228 -413 -316 -573 -315
-572 -365 -661 -402 -725 -37 -64 -155 -277 -450 -810 -182 -328 -248 -446
-467 -830 -27 -47 -60 -108 -74 -136 l-26 -50 298 -542 c165 -298 301 -542
304 -542 4 0 523 938 616 1115 74 141 1192 2170 1802 3270 202 366 1235 2241
1280 2325 19 36 57 102 84 148 26 45 48 85 48 87 0 3 -267 5 -594 5 l-594 0
-12 -30z m990 -106 c0 -3 -26 -53 -59 -112 -32 -59 -77 -143 -101 -187 -23
-44 -57 -107 -75 -140 -18 -33 -60 -114 -95 -180 -35 -66 -66 -124 -70 -130
-4 -5 -36 -64 -71 -130 -34 -66 -82 -156 -105 -200 l-43 -80 -465 -3 c-256 -1
-466 1 -466 5 0 3 30 59 66 122 89 156 102 178 169 306 32 61 61 112 64 115 3
3 24 39 45 80 22 41 43 80 48 86 4 6 20 33 34 60 15 27 37 67 49 89 12 22 55
100 95 173 l72 132 454 0 c250 0 454 -3 454 -6z"/>
</g>
</svg>
